<?xml version="1.0" encoding="utf-8"?>
<!-- Generator: Adobe Illustrator 22.0.1, SVG Export Plug-In . SVG Version: 6.00 Build 0)  -->
<svg version="1.1" id="Layer_1" xmlns="http://www.w3.org/2000/svg" xmlns:xlink="http://www.w3.org/1999/xlink" x="0px" y="0px"
	 viewBox="0 0 500 130" style="enable-background:new 0 0 500 130;" xml:space="preserve">
<style type="text/css">
	.st0{fill:none;stroke:#000000;stroke-width:2;stroke-miterlimit:10;}
	.st1{fill:none;stroke:#000000;stroke-miterlimit:10;}
	.st2{fill:none;stroke:#000000;stroke-width:2;stroke-linecap:round;stroke-miterlimit:10;}
</style>
<rect x="21" y="11.3" class="st0" width="340.7" height="104.3"/>
<rect x="361.7" y="11.3" class="st0" width="109.7" height="104.3"/>
<path class="st0" d="M45.5,115.7v-97c0,0,59-9.3,60.7,42.3C108,118.7,21,99.7,21,99.7"/>
<path class="st1" d="M378.7,115.7"/>
<path class="st2" d="M148.5,103.5"/>
<path class="st2" d="M148.5,68.7"/>
<path class="st2" d="M133.3,52.7"/>
<path class="st0" d="M148.5,101.9"/>
<path class="st0" d="M119.5,79.5"/>
<path class="st0" d="M148.5,79.3"/>
<path class="st2" d="M122.1,11.3c0,0,57.3,39.6,58,104.3c0,0,5.3-65.3,45.3-104.3"/>
<line class="st2" x1="212.7" y1="54.2" x2="212.7" y2="104.1"/>
<path class="st2" d="M120.3,48.4c0,0,31-10.3,31,31.3s-37.3,23.8-34.1,5c3.5-20.4,21.5-11.4,20.8-1.7"/>
</svg>
